<?xml version="1.0" encoding="UTF-8" standalone="no"?><svg xmlns="http://www.w3.org/2000/svg" xmlns:xlink="http://www.w3.org/1999/xlink" contentScriptType="application/ecmascript" contentStyleType="text/css" height="619px" preserveAspectRatio="none" style="width:1674px;height:619px;" version="1.1" viewBox="0 0 1674 619" width="1674px" zoomAndPan="magnify"><defs/><g><text fill="#000000" font-family="Serif" font-size="10" lengthAdjust="spacingAndGlyphs" textLength="14" x="1" y="26.4785">Mo</text><text fill="#000000" font-family="Serif" font-size="10" lengthAdjust="spacingAndGlyphs" textLength="5" x="5.5" y="38.4785">7</text><text fill="#000000" font-family="Serif" font-size="10" lengthAdjust="spacingAndGlyphs" textLength="12" x="18" y="26.4785">Tu</text><text fill="#000000" font-family="Serif" font-size="10" lengthAdjust="spacingAndGlyphs" textLength="5" x="21.5" y="38.4785">8</text><text fill="#000000" font-family="Serif" font-size="10" lengthAdjust="spacingAndGlyphs" textLength="14" x="33" y="26.4785">We</text><text fill="#000000" font-family="Serif" font-size="10" lengthAdjust="spacingAndGlyphs" textLength="5" x="37.5" y="38.4785">9</text><text fill="#000000" font-family="Serif" font-size="10" lengthAdjust="spacingAndGlyphs" textLength="12" x="50" y="26.4785">Th</text><text fill="#000000" font-family="Serif" font-size="10" lengthAdjust="spacingAndGlyphs" textLength="10" x="51" y="38.4785">10</text><text fill="#000000" font-family="Serif" font-size="10" lengthAdjust="spacingAndGlyphs" textLength="9" x="67.5" y="26.4785">Fr</text><text fill="#000000" font-family="Serif" font-size="10" lengthAdjust="spacingAndGlyphs" textLength="10" x="67" y="38.4785">11</text><text fill="#000000" font-family="Serif" font-size="10" lengthAdjust="spacingAndGlyphs" textLength="14" x="113" y="26.4785">Mo</text><text fill="#000000" font-family="Serif" font-size="10" lengthAdjust="spacingAndGlyphs" textLength="10" x="115" y="38.4785">14</text><text fill="#000000" font-family="Serif" font-size="10" lengthAdjust="spacingAndGlyphs" textLength="12" x="130" y="26.4785">Tu</text><text fill="#000000" font-family="Serif" font-size="10" lengthAdjust="spacingAndGlyphs" textLength="10" x="131" y="38.4785">15</text><text fill="#000000" font-family="Serif" font-size="10" lengthAdjust="spacingAndGlyphs" textLength="14" x="145" y="26.4785">We</text><text fill="#000000" font-family="Serif" font-size="10" lengthAdjust="spacingAndGlyphs" textLength="10" x="147" y="38.4785">16</text><text fill="#000000" font-family="Serif" font-size="10" lengthAdjust="spacingAndGlyphs" textLength="12" x="162" y="26.4785">Th</text><text fill="#000000" font-family="Serif" font-size="10" lengthAdjust="spacingAndGlyphs" textLength="10" x="163" y="38.4785">17</text><text fill="#000000" font-family="Serif" font-size="10" lengthAdjust="spacingAndGlyphs" textLength="9" x="179.5" y="26.4785">Fr</text><text fill="#000000" font-family="Serif" font-size="10" lengthAdjust="spacingAndGlyphs" textLength="10" x="179" y="38.4785">18</text><text fill="#000000" font-family="Serif" font-size="10" lengthAdjust="spacingAndGlyphs" textLength="14" x="225" y="26.4785">Mo</text><text fill="#000000" font-family="Serif" font-size="10" lengthAdjust="spacingAndGlyphs" textLength="10" x="227" y="38.4785">21</text><text fill="#000000" font-family="Serif" font-size="10" lengthAdjust="spacingAndGlyphs" textLength="12" x="242" y="26.4785">Tu</text><text fill="#000000" font-family="Serif" font-size="10" lengthAdjust="spacingAndGlyphs" textLength="10" x="243" y="38.4785">22</text><text fill="#000000" font-family="Serif" font-size="10" lengthAdjust="spacingAndGlyphs" textLength="14" x="257" y="26.4785">We</text><text fill="#000000" font-family="Serif" font-size="10" lengthAdjust="spacingAndGlyphs" textLength="10" x="259" y="38.4785">23</text><text fill="#000000" font-family="Serif" font-size="10" lengthAdjust="spacingAndGlyphs" textLength="12" x="274" y="26.4785">Th</text><text fill="#000000" font-family="Serif" font-size="10" lengthAdjust="spacingAndGlyphs" textLength="10" x="275" y="38.4785">24</text><text fill="#000000" font-family="Serif" font-size="10" lengthAdjust="spacingAndGlyphs" textLength="9" x="291.5" y="26.4785">Fr</text><text fill="#000000" font-family="Serif" font-size="10" lengthAdjust="spacingAndGlyphs" textLength="10" x="291" y="38.4785">25</text><text fill="#000000" font-family="Serif" font-size="10" lengthAdjust="spacingAndGlyphs" textLength="14" x="337" y="26.4785">Mo</text><text fill="#000000" font-family="Serif" font-size="10" lengthAdjust="spacingAndGlyphs" textLength="10" x="339" y="38.4785">28</text><text fill="#000000" font-family="Serif" font-size="10" lengthAdjust="spacingAndGlyphs" textLength="12" x="354" y="26.4785">Tu</text><text fill="#000000" font-family="Serif" font-size="10" lengthAdjust="spacingAndGlyphs" textLength="10" x="355" y="38.4785">29</text><text fill="#000000" font-family="Serif" font-size="10" lengthAdjust="spacingAndGlyphs" textLength="14" x="369" y="26.4785">We</text><text fill="#000000" font-family="Serif" font-size="10" lengthAdjust="spacingAndGlyphs" textLength="10" x="371" y="38.4785">30</text><text fill="#000000" font-family="Serif" font-size="10" lengthAdjust="spacingAndGlyphs" textLength="12" x="386" y="26.4785">Th</text><text fill="#000000" font-family="Serif" font-size="10" lengthAdjust="spacingAndGlyphs" textLength="5" x="389.5" y="38.4785">1</text><text fill="#000000" font-family="Serif" font-size="10" lengthAdjust="spacingAndGlyphs" textLength="9" x="403.5" y="26.4785">Fr</text><text fill="#000000" font-family="Serif" font-size="10" lengthAdjust="spacingAndGlyphs" textLength="5" x="405.5" y="38.4785">2</text><text fill="#000000" font-family="Serif" font-size="10" lengthAdjust="spacingAndGlyphs" textLength="14" x="449" y="26.4785">Mo</text><text fill="#000000" font-family="Serif" font-size="10" lengthAdjust="spacingAndGlyphs" textLength="5" x="453.5" y="38.4785">5</text><text fill="#000000" font-family="Serif" font-size="10" lengthAdjust="spacingAndGlyphs" textLength="12" x="466" y="26.4785">Tu</text><text fill="#000000" font-family="Serif" font-size="10" lengthAdjust="spacingAndGlyphs" textLength="5" x="469.5" y="38.4785">6</text><text fill="#000000" font-family="Serif" font-size="10" lengthAdjust="spacingAndGlyphs" textLength="14" x="481" y="26.4785">We</text><text fill="#000000" font-family="Serif" font-size="10" lengthAdjust="spacingAndGlyphs" textLength="5" x="485.5" y="38.4785">7</text><text fill="#000000" font-family="Serif" font-size="10" lengthAdjust="spacingAndGlyphs" textLength="12" x="498" y="26.4785">Th</text><text fill="#000000" font-family="Serif" font-size="10" lengthAdjust="spacingAndGlyphs" textLength="5" x="501.5" y="38.4785">8</text><text fill="#000000" font-family="Serif" font-size="10" lengthAdjust="spacingAndGlyphs" textLength="9" x="515.5" y="26.4785">Fr</text><text fill="#000000" font-family="Serif" font-size="10" lengthAdjust="spacingAndGlyphs" textLength="5" x="517.5" y="38.4785">9</text><rect fill="#ADD8E6" height="576" style="stroke: none; stroke-width: 1.0;" width="15" x="561" y="41"/><text fill="#000000" font-family="Serif" font-size="10" lengthAdjust="spacingAndGlyphs" textLength="14" x="561" y="26.4785">Mo</text><text fill="#000000" font-family="Serif" font-size="10" lengthAdjust="spacingAndGlyphs" textLength="10" x="563" y="38.4785">12</text><rect fill="#ADD8E6" height="576" style="stroke: none; stroke-width: 1.0;" width="15" x="577" y="41"/><text fill="#000000" font-family="Serif" font-size="10" lengthAdjust="spacingAndGlyphs" textLength="12" x="578" y="26.4785">Tu</text><text fill="#000000" font-family="Serif" font-size="10" lengthAdjust="spacingAndGlyphs" textLength="10" x="579" y="38.4785">13</text><rect fill="#ADD8E6" height="576" style="stroke: none; stroke-width: 1.0;" width="15" x="593" y="41"/><text fill="#000000" font-family="Serif" font-size="10" lengthAdjust="spacingAndGlyphs" textLength="14" x="593" y="26.4785">We</text><text fill="#000000" font-family="Serif" font-size="10" lengthAdjust="spacingAndGlyphs" textLength="10" x="595" y="38.4785">14</text><rect fill="#ADD8E6" height="576" style="stroke: none; stroke-width: 1.0;" width="15" x="609" y="41"/><text fill="#000000" font-family="Serif" font-size="10" lengthAdjust="spacingAndGlyphs" textLength="12" x="610" y="26.4785">Th</text><text fill="#000000" font-family="Serif" font-size="10" lengthAdjust="spacingAndGlyphs" textLength="10" x="611" y="38.4785">15</text><rect fill="#ADD8E6" height="576" style="stroke: none; stroke-width: 1.0;" width="15" x="625" y="41"/><text fill="#000000" font-family="Serif" font-size="10" lengthAdjust="spacingAndGlyphs" textLength="9" x="627.5" y="26.4785">Fr</text><text fill="#000000" font-family="Serif" font-size="10" lengthAdjust="spacingAndGlyphs" textLength="10" x="627" y="38.4785">16</text><text fill="#000000" font-family="Serif" font-size="10" lengthAdjust="spacingAndGlyphs" textLength="14" x="673" y="26.4785">Mo</text><text fill="#000000" font-family="Serif" font-size="10" lengthAdjust="spacingAndGlyphs" textLength="10" x="675" y="38.4785">19</text><text fill="#000000" font-family="Serif" font-size="10" lengthAdjust="spacingAndGlyphs" textLength="12" x="690" y="26.4785">Tu</text><text fill="#000000" font-family="Serif" font-size="10" lengthAdjust="spacingAndGlyphs" textLength="10" x="691" y="38.4785">20</text><text fill="#000000" font-family="Serif" font-size="10" lengthAdjust="spacingAndGlyphs" textLength="14" x="705" y="26.4785">We</text><text fill="#000000" font-family="Serif" font-size="10" lengthAdjust="spacingAndGlyphs" textLength="10" x="707" y="38.4785">21</text><text fill="#000000" font-family="Serif" font-size="10" lengthAdjust="spacingAndGlyphs" textLength="12" x="722" y="26.4785">Th</text><text fill="#000000" font-family="Serif" font-size="10" lengthAdjust="spacingAndGlyphs" textLength="10" x="723" y="38.4785">22</text><text fill="#000000" font-family="Serif" font-size="10" lengthAdjust="spacingAndGlyphs" textLength="9" x="739.5" y="26.4785">Fr</text><text fill="#000000" font-family="Serif" font-size="10" lengthAdjust="spacingAndGlyphs" textLength="10" x="739" y="38.4785">23</text><text fill="#000000" font-family="Serif" font-size="10" lengthAdjust="spacingAndGlyphs" textLength="14" x="785" y="26.4785">Mo</text><text fill="#000000" font-family="Serif" font-size="10" lengthAdjust="spacingAndGlyphs" textLength="10" x="787" y="38.4785">26</text><text fill="#000000" font-family="Serif" font-size="10" lengthAdjust="spacingAndGlyphs" textLength="12" x="802" y="26.4785">Tu</text><text fill="#000000" font-family="Serif" font-size="10" lengthAdjust="spacingAndGlyphs" textLength="10" x="803" y="38.4785">27</text><text fill="#000000" font-family="Serif" font-size="10" lengthAdjust="spacingAndGlyphs" textLength="14" x="817" y="26.4785">We</text><text fill="#000000" font-family="Serif" font-size="10" lengthAdjust="spacingAndGlyphs" textLength="10" x="819" y="38.4785">28</text><text fill="#000000" font-family="Serif" font-size="10" lengthAdjust="spacingAndGlyphs" textLength="12" x="834" y="26.4785">Th</text><text fill="#000000" font-family="Serif" font-size="10" lengthAdjust="spacingAndGlyphs" textLength="10" x="835" y="38.4785">29</text><text fill="#000000" font-family="Serif" font-size="10" lengthAdjust="spacingAndGlyphs" textLength="9" x="851.5" y="26.4785">Fr</text><text fill="#000000" font-family="Serif" font-size="10" lengthAdjust="spacingAndGlyphs" textLength="10" x="851" y="38.4785">30</text><text fill="#000000" font-family="Serif" font-size="10" lengthAdjust="spacingAndGlyphs" textLength="14" x="897" y="26.4785">Mo</text><text fill="#000000" font-family="Serif" font-size="10" lengthAdjust="spacingAndGlyphs" textLength="5" x="901.5" y="38.4785">2</text><text fill="#000000" font-family="Serif" font-size="10" lengthAdjust="spacingAndGlyphs" textLength="12" x="914" y="26.4785">Tu</text><text fill="#000000" font-family="Serif" font-size="10" lengthAdjust="spacingAndGlyphs" textLength="5" x="917.5" y="38.4785">3</text><text fill="#000000" font-family="Serif" font-size="10" lengthAdjust="spacingAndGlyphs" textLength="14" x="929" y="26.4785">We</text><text fill="#000000" font-family="Serif" font-size="10" lengthAdjust="spacingAndGlyphs" textLength="5" x="933.5" y="38.4785">4</text><text fill="#000000" font-family="Serif" font-size="10" lengthAdjust="spacingAndGlyphs" textLength="12" x="946" y="26.4785">Th</text><text fill="#000000" font-family="Serif" font-size="10" lengthAdjust="spacingAndGlyphs" textLength="5" x="949.5" y="38.4785">5</text><text fill="#000000" font-family="Serif" font-size="10" lengthAdjust="spacingAndGlyphs" textLength="9" x="963.5" y="26.4785">Fr</text><text fill="#000000" font-family="Serif" font-size="10" lengthAdjust="spacingAndGlyphs" textLength="5" x="965.5" y="38.4785">6</text><text fill="#000000" font-family="Serif" font-size="10" lengthAdjust="spacingAndGlyphs" textLength="14" x="1009" y="26.4785">Mo</text><text fill="#000000" font-family="Serif" font-size="10" lengthAdjust="spacingAndGlyphs" textLength="5" x="1013.5" y="38.4785">9</text><text fill="#000000" font-family="Serif" font-size="10" lengthAdjust="spacingAndGlyphs" textLength="12" x="1026" y="26.4785">Tu</text><text fill="#000000" font-family="Serif" font-size="10" lengthAdjust="spacingAndGlyphs" textLength="10" x="1027" y="38.4785">10</text><text fill="#000000" font-family="Serif" font-size="10" lengthAdjust="spacingAndGlyphs" textLength="14" x="1041" y="26.4785">We</text><text fill="#000000" font-family="Serif" font-size="10" lengthAdjust="spacingAndGlyphs" textLength="10" x="1043" y="38.4785">11</text><text fill="#000000" font-family="Serif" font-size="10" lengthAdjust="spacingAndGlyphs" textLength="12" x="1058" y="26.4785">Th</text><text fill="#000000" font-family="Serif" font-size="10" lengthAdjust="spacingAndGlyphs" textLength="10" x="1059" y="38.4785">12</text><text fill="#000000" font-family="Serif" font-size="10" lengthAdjust="spacingAndGlyphs" textLength="9" x="1075.5" y="26.4785">Fr</text><text fill="#000000" font-family="Serif" font-size="10" lengthAdjust="spacingAndGlyphs" textLength="10" x="1075" y="38.4785">13</text><text fill="#000000" font-family="Serif" font-size="10" lengthAdjust="spacingAndGlyphs" textLength="14" x="1121" y="26.4785">Mo</text><text fill="#000000" font-family="Serif" font-size="10" lengthAdjust="spacingAndGlyphs" textLength="10" x="1123" y="38.4785">16</text><text fill="#000000" font-family="Serif" font-size="10" lengthAdjust="spacingAndGlyphs" textLength="12" x="1138" y="26.4785">Tu</text><text fill="#000000" font-family="Serif" font-size="10" lengthAdjust="spacingAndGlyphs" textLength="10" x="1139" y="38.4785">17</text><text fill="#000000" font-family="Serif" font-size="10" lengthAdjust="spacingAndGlyphs" textLength="14" x="1153" y="26.4785">We</text><text fill="#000000" font-family="Serif" font-size="10" lengthAdjust="spacingAndGlyphs" textLength="10" x="1155" y="38.4785">18</text><text fill="#000000" font-family="Serif" font-size="10" lengthAdjust="spacingAndGlyphs" textLength="12" x="1170" y="26.4785">Th</text><text fill="#000000" font-family="Serif" font-size="10" lengthAdjust="spacingAndGlyphs" textLength="10" x="1171" y="38.4785">19</text><text fill="#000000" font-family="Serif" font-size="10" lengthAdjust="spacingAndGlyphs" textLength="9" x="1187.5" y="26.4785">Fr</text><text fill="#000000" font-family="Serif" font-size="10" lengthAdjust="spacingAndGlyphs" textLength="10" x="1187" y="38.4785">20</text><text fill="#000000" font-family="Serif" font-size="10" lengthAdjust="spacingAndGlyphs" textLength="14" x="1233" y="26.4785">Mo</text><text fill="#000000" font-family="Serif" font-size="10" lengthAdjust="spacingAndGlyphs" textLength="10" x="1235" y="38.4785">23</text><text fill="#000000" font-family="Serif" font-size="10" lengthAdjust="spacingAndGlyphs" textLength="12" x="1250" y="26.4785">Tu</text><text fill="#000000" font-family="Serif" font-size="10" lengthAdjust="spacingAndGlyphs" textLength="10" x="1251" y="38.4785">24</text><text fill="#000000" font-family="Serif" font-size="10" lengthAdjust="spacingAndGlyphs" textLength="14" x="1265" y="26.4785">We</text><text fill="#000000" font-family="Serif" font-size="10" lengthAdjust="spacingAndGlyphs" textLength="10" x="1267" y="38.4785">25</text><text fill="#000000" font-family="Serif" font-size="10" lengthAdjust="spacingAndGlyphs" textLength="12" x="1282" y="26.4785">Th</text><text fill="#000000" font-family="Serif" font-size="10" lengthAdjust="spacingAndGlyphs" textLength="10" x="1283" y="38.4785">26</text><text fill="#000000" font-family="Serif" font-size="10" lengthAdjust="spacingAndGlyphs" textLength="9" x="1299.5" y="26.4785">Fr</text><text fill="#000000" font-family="Serif" font-size="10" lengthAdjust="spacingAndGlyphs" textLength="10" x="1299" y="38.4785">27</text><text fill="#000000" font-family="Serif" font-size="10" lengthAdjust="spacingAndGlyphs" textLength="14" x="1345" y="26.4785">Mo</text><text fill="#000000" font-family="Serif" font-size="10" lengthAdjust="spacingAndGlyphs" textLength="10" x="1347" y="38.4785">30</text><text fill="#000000" font-family="Serif" font-size="10" lengthAdjust="spacingAndGlyphs" textLength="12" x="1362" y="26.4785">Tu</text><text fill="#000000" font-family="Serif" font-size="10" lengthAdjust="spacingAndGlyphs" textLength="5" x="1365.5" y="38.4785">1</text><text fill="#000000" font-family="Serif" font-size="10" lengthAdjust="spacingAndGlyphs" textLength="14" x="1377" y="26.4785">We</text><text fill="#000000" font-family="Serif" font-size="10" lengthAdjust="spacingAndGlyphs" textLength="5" x="1381.5" y="38.4785">2</text><text fill="#000000" font-family="Serif" font-size="10" lengthAdjust="spacingAndGlyphs" textLength="12" x="1394" y="26.4785">Th</text><text fill="#000000" font-family="Serif" font-size="10" lengthAdjust="spacingAndGlyphs" textLength="5" x="1397.5" y="38.4785">3</text><text fill="#000000" font-family="Serif" font-size="10" lengthAdjust="spacingAndGlyphs" textLength="9" x="1411.5" y="26.4785">Fr</text><text fill="#000000" font-family="Serif" font-size="10" lengthAdjust="spacingAndGlyphs" textLength="5" x="1413.5" y="38.4785">4</text><text fill="#000000" font-family="Serif" font-size="10" lengthAdjust="spacingAndGlyphs" textLength="14" x="1457" y="26.4785">Mo</text><text fill="#000000" font-family="Serif" font-size="10" lengthAdjust="spacingAndGlyphs" textLength="5" x="1461.5" y="38.4785">7</text><text fill="#000000" font-family="Serif" font-size="10" lengthAdjust="spacingAndGlyphs" textLength="12" x="1474" y="26.4785">Tu</text><text fill="#000000" font-family="Serif" font-size="10" lengthAdjust="spacingAndGlyphs" textLength="5" x="1477.5" y="38.4785">8</text><text fill="#000000" font-family="Serif" font-size="10" lengthAdjust="spacingAndGlyphs" textLength="14" x="1489" y="26.4785">We</text><text fill="#000000" font-family="Serif" font-size="10" lengthAdjust="spacingAndGlyphs" textLength="5" x="1493.5" y="38.4785">9</text><text fill="#000000" font-family="Serif" font-size="10" lengthAdjust="spacingAndGlyphs" textLength="12" x="1506" y="26.4785">Th</text><text fill="#000000" font-family="Serif" font-size="10" lengthAdjust="spacingAndGlyphs" textLength="10" x="1507" y="38.4785">10</text><text fill="#000000" font-family="Serif" font-size="10" lengthAdjust="spacingAndGlyphs" textLength="9" x="1523.5" y="26.4785">Fr</text><text fill="#000000" font-family="Serif" font-size="10" lengthAdjust="spacingAndGlyphs" textLength="10" x="1523" y="38.4785">11</text><text fill="#000000" font-family="Serif" font-size="10" lengthAdjust="spacingAndGlyphs" textLength="14" x="1569" y="26.4785">Mo</text><text fill="#000000" font-family="Serif" font-size="10" lengthAdjust="spacingAndGlyphs" textLength="10" x="1571" y="38.4785">14</text><text fill="#000000" font-family="Serif" font-size="10" lengthAdjust="spacingAndGlyphs" textLength="12" x="1586" y="26.4785">Tu</text><text fill="#000000" font-family="Serif" font-size="10" lengthAdjust="spacingAndGlyphs" textLength="10" x="1587" y="38.4785">15</text><text fill="#000000" font-family="Serif" font-size="10" lengthAdjust="spacingAndGlyphs" textLength="14" x="1601" y="26.4785">We</text><text fill="#000000" font-family="Serif" font-size="10" lengthAdjust="spacingAndGlyphs" textLength="10" x="1603" y="38.4785">16</text><text fill="#000000" font-family="Serif" font-size="10" lengthAdjust="spacingAndGlyphs" textLength="12" x="1618" y="26.4785">Th</text><text fill="#000000" font-family="Serif" font-size="10" lengthAdjust="spacingAndGlyphs" textLength="10" x="1619" y="38.4785">17</text><text fill="#000000" font-family="Serif" font-size="12" font-weight="bold" lengthAdjust="spacingAndGlyphs" textLength="84" x="150" y="12.5742">September 2020</text><text fill="#000000" font-family="Serif" font-size="12" font-weight="bold" lengthAdjust="spacingAndGlyphs" textLength="69" x="597.5" y="12.5742">October 2020</text><text fill="#000000" font-family="Serif" font-size="12" font-weight="bold" lengthAdjust="spacingAndGlyphs" textLength="80" x="1080" y="12.5742">November 2020</text><text fill="#000000" font-family="Serif" font-size="12" font-weight="bold" lengthAdjust="spacingAndGlyphs" textLength="80" x="1456" y="12.5742">December 2020</text><rect fill="#E0E8E8" height="576" style="stroke: none; stroke-width: 1.0;" width="15" x="81" y="41"/><rect fill="#E0E8E8" height="576" style="stroke: none; stroke-width: 1.0;" width="15" x="97" y="41"/><rect fill="#E0E8E8" height="576" style="stroke: none; stroke-width: 1.0;" width="15" x="193" y="41"/><rect fill="#E0E8E8" height="576" style="stroke: none; stroke-width: 1.0;" width="15" x="209" y="41"/><rect fill="#E0E8E8" height="576" style="stroke: none; stroke-width: 1.0;" width="15" x="305" y="41"/><rect fill="#E0E8E8" height="576" style="stroke: none; stroke-width: 1.0;" width="15" x="321" y="41"/><rect fill="#E0E8E8" height="576" style="stroke: none; stroke-width: 1.0;" width="15" x="417" y="41"/><rect fill="#E0E8E8" height="576" style="stroke: none; stroke-width: 1.0;" width="15" x="433" y="41"/><rect fill="#E0E8E8" height="576" style="stroke: none; stroke-width: 1.0;" width="15" x="529" y="41"/><rect fill="#E0E8E8" height="576" style="stroke: none; stroke-width: 1.0;" width="15" x="545" y="41"/><rect fill="#E0E8E8" height="576" style="stroke: none; stroke-width: 1.0;" width="15" x="641" y="41"/><rect fill="#E0E8E8" height="576" style="stroke: none; stroke-width: 1.0;" width="15" x="657" y="41"/><rect fill="#E0E8E8" height="576" style="stroke: none; stroke-width: 1.0;" width="15" x="753" y="41"/><rect fill="#E0E8E8" height="576" style="stroke: none; stroke-width: 1.0;" width="15" x="769" y="41"/><rect fill="#E0E8E8" height="576" style="stroke: none; stroke-width: 1.0;" width="15" x="865" y="41"/><rect fill="#E0E8E8" height="576" style="stroke: none; stroke-width: 1.0;" width="15" x="881" y="41"/><rect fill="#E0E8E8" height="576" style="stroke: none; stroke-width: 1.0;" width="15" x="977" y="41"/><rect fill="#E0E8E8" height="576" style="stroke: none; stroke-width: 1.0;" width="15" x="993" y="41"/><rect fill="#E0E8E8" height="576" style="stroke: none; stroke-width: 1.0;" width="15" x="1089" y="41"/><rect fill="#E0E8E8" height="576" style="stroke: none; stroke-width: 1.0;" width="15" x="1105" y="41"/><rect fill="#E0E8E8" height="576" style="stroke: none; stroke-width: 1.0;" width="15" x="1201" y="41"/><rect fill="#E0E8E8" height="576" style="stroke: none; stroke-width: 1.0;" width="15" x="1217" y="41"/><rect fill="#E0E8E8" height="576" style="stroke: none; stroke-width: 1.0;" width="15" x="1313" y="41"/><rect fill="#E0E8E8" height="576" style="stroke: none; stroke-width: 1.0;" width="15" x="1329" y="41"/><rect fill="#E0E8E8" height="576" style="stroke: none; stroke-width: 1.0;" width="15" x="1425" y="41"/><rect fill="#E0E8E8" height="576" style="stroke: none; stroke-width: 1.0;" width="15" x="1441" y="41"/><rect fill="#E0E8E8" height="576" style="stroke: none; stroke-width: 1.0;" width="15" x="1537" y="41"/><rect fill="#E0E8E8" height="576" style="stroke: none; stroke-width: 1.0;" width="15" x="1553" y="41"/><line style="stroke: #C0C0C0; stroke-width: 1.0;" x1="0" x2="0" y1="0" y2="617"/><line style="stroke: #C0C0C0; stroke-width: 1.0;" x1="16" x2="16" y1="41" y2="617"/><line style="stroke: #C0C0C0; stroke-width: 1.0;" x1="32" x2="32" y1="41" y2="617"/><line style="stroke: #C0C0C0; stroke-width: 1.0;" x1="48" x2="48" y1="41" y2="617"/><line style="stroke: #C0C0C0; stroke-width: 1.0;" x1="64" x2="64" y1="41" y2="617"/><line style="stroke: #C0C0C0; stroke-width: 1.0;" x1="80" x2="80" y1="41" y2="617"/><line style="stroke: #C0C0C0; stroke-width: 1.0;" x1="96" x2="96" y1="41" y2="617"/><line style="stroke: #C0C0C0; stroke-width: 1.0;" x1="112" x2="112" y1="41" y2="617"/><line style="stroke: #C0C0C0; stroke-width: 1.0;" x1="128" x2="128" y1="41" y2="617"/><line style="stroke: #C0C0C0; stroke-width: 1.0;" x1="144" x2="144" y1="41" y2="617"/><line style="stroke: #C0C0C0; stroke-width: 1.0;" x1="160" x2="160" y1="41" y2="617"/><line style="stroke: #C0C0C0; stroke-width: 1.0;" x1="176" x2="176" y1="41" y2="617"/><line style="stroke: #C0C0C0; stroke-width: 1.0;" x1="192" x2="192" y1="41" y2="617"/><line style="stroke: #C0C0C0; stroke-width: 1.0;" x1="208" x2="208" y1="41" y2="617"/><line style="stroke: #C0C0C0; stroke-width: 1.0;" x1="224" x2="224" y1="41" y2="617"/><line style="stroke: #C0C0C0; stroke-width: 1.0;" x1="240" x2="240" y1="41" y2="617"/><line style="stroke: #C0C0C0; stroke-width: 1.0;" x1="256" x2="256" y1="41" y2="617"/><line style="stroke: #C0C0C0; stroke-width: 1.0;" x1="272" x2="272" y1="41" y2="617"/><line style="stroke: #C0C0C0; stroke-width: 1.0;" x1="288" x2="288" y1="41" y2="617"/><line style="stroke: #C0C0C0; stroke-width: 1.0;" x1="304" x2="304" y1="41" y2="617"/><line style="stroke: #C0C0C0; stroke-width: 1.0;" x1="320" x2="320" y1="41" y2="617"/><line style="stroke: #C0C0C0; stroke-width: 1.0;" x1="336" x2="336" y1="41" y2="617"/><line style="stroke: #C0C0C0; stroke-width: 1.0;" x1="352" x2="352" y1="41" y2="617"/><line style="stroke: #C0C0C0; stroke-width: 1.0;" x1="368" x2="368" y1="41" y2="617"/><line style="stroke: #C0C0C0; stroke-width: 1.0;" x1="384" x2="384" y1="0" y2="617"/><line style="stroke: #C0C0C0; stroke-width: 1.0;" x1="400" x2="400" y1="41" y2="617"/><line style="stroke: #C0C0C0; stroke-width: 1.0;" x1="416" x2="416" y1="41" y2="617"/><line style="stroke: #C0C0C0; stroke-width: 1.0;" x1="432" x2="432" y1="41" y2="617"/><line style="stroke: #C0C0C0; stroke-width: 1.0;" x1="448" x2="448" y1="41" y2="617"/><line style="stroke: #C0C0C0; stroke-width: 1.0;" x1="464" x2="464" y1="41" y2="617"/><line style="stroke: #C0C0C0; stroke-width: 1.0;" x1="480" x2="480" y1="41" y2="617"/><line style="stroke: #C0C0C0; stroke-width: 1.0;" x1="496" x2="496" y1="41" y2="617"/><line style="stroke: #C0C0C0; stroke-width: 1.0;" x1="512" x2="512" y1="41" y2="617"/><line style="stroke: #C0C0C0; stroke-width: 1.0;" x1="528" x2="528" y1="41" y2="617"/><line style="stroke: #C0C0C0; stroke-width: 1.0;" x1="544" x2="544" y1="41" y2="617"/><line style="stroke: #C0C0C0; stroke-width: 1.0;" x1="560" x2="560" y1="41" y2="617"/><line style="stroke: #C0C0C0; stroke-width: 1.0;" x1="576" x2="576" y1="41" y2="617"/><line style="stroke: #C0C0C0; stroke-width: 1.0;" x1="592" x2="592" y1="41" y2="617"/><line style="stroke: #C0C0C0; stroke-width: 1.0;" x1="608" x2="608" y1="41" y2="617"/><line style="stroke: #C0C0C0; stroke-width: 1.0;" x1="624" x2="624" y1="41" y2="617"/><line style="stroke: #C0C0C0; stroke-width: 1.0;" x1="640" x2="640" y1="41" y2="617"/><line style="stroke: #C0C0C0; stroke-width: 1.0;" x1="656" x2="656" y1="41" y2="617"/><line style="stroke: #C0C0C0; stroke-width: 1.0;" x1="672" x2="672" y1="41" y2="617"/><line style="stroke: #C0C0C0; stroke-width: 1.0;" x1="688" x2="688" y1="41" y2="617"/><line style="stroke: #C0C0C0; stroke-width: 1.0;" x1="704" x2="704" y1="41" y2="617"/><line style="stroke: #C0C0C0; stroke-width: 1.0;" x1="720" x2="720" y1="41" y2="617"/><line style="stroke: #C0C0C0; stroke-width: 1.0;" x1="736" x2="736" y1="41" y2="617"/><line style="stroke: #C0C0C0; stroke-width: 1.0;" x1="752" x2="752" y1="41" y2="617"/><line style="stroke: #C0C0C0; stroke-width: 1.0;" x1="768" x2="768" y1="41" y2="617"/><line style="stroke: #C0C0C0; stroke-width: 1.0;" x1="784" x2="784" y1="41" y2="617"/><line style="stroke: #C0C0C0; stroke-width: 1.0;" x1="800" x2="800" y1="41" y2="617"/><line style="stroke: #C0C0C0; stroke-width: 1.0;" x1="816" x2="816" y1="41" y2="617"/><line style="stroke: #C0C0C0; stroke-width: 1.0;" x1="832" x2="832" y1="41" y2="617"/><line style="stroke: #C0C0C0; stroke-width: 1.0;" x1="848" x2="848" y1="41" y2="617"/><line style="stroke: #C0C0C0; stroke-width: 1.0;" x1="864" x2="864" y1="41" y2="617"/><line style="stroke: #C0C0C0; stroke-width: 1.0;" x1="880" x2="880" y1="0" y2="617"/><line style="stroke: #C0C0C0; stroke-width: 1.0;" x1="896" x2="896" y1="41" y2="617"/><line style="stroke: #C0C0C0; stroke-width: 1.0;" x1="912" x2="912" y1="41" y2="617"/><line style="stroke: #C0C0C0; stroke-width: 1.0;" x1="928" x2="928" y1="41" y2="617"/><line style="stroke: #C0C0C0; stroke-width: 1.0;" x1="944" x2="944" y1="41" y2="617"/><line style="stroke: #C0C0C0; stroke-width: 1.0;" x1="960" x2="960" y1="41" y2="617"/><line style="stroke: #C0C0C0; stroke-width: 1.0;" x1="976" x2="976" y1="41" y2="617"/><line style="stroke: #C0C0C0; stroke-width: 1.0;" x1="992" x2="992" y1="41" y2="617"/><line style="stroke: #C0C0C0; stroke-width: 1.0;" x1="1008" x2="1008" y1="41" y2="617"/><line style="stroke: #C0C0C0; stroke-width: 1.0;" x1="1024" x2="1024" y1="41" y2="617"/><line style="stroke: #C0C0C0; stroke-width: 1.0;" x1="1040" x2="1040" y1="41" y2="617"/><line style="stroke: #C0C0C0; stroke-width: 1.0;" x1="1056" x2="1056" y1="41" y2="617"/><line style="stroke: #C0C0C0; stroke-width: 1.0;" x1="1072" x2="1072" y1="41" y2="617"/><line style="stroke: #C0C0C0; stroke-width: 1.0;" x1="1088" x2="1088" y1="41" y2="617"/><line style="stroke: #C0C0C0; stroke-width: 1.0;" x1="1104" x2="1104" y1="41" y2="617"/><line style="stroke: #C0C0C0; stroke-width: 1.0;" x1="1120" x2="1120" y1="41" y2="617"/><line style="stroke: #C0C0C0; stroke-width: 1.0;" x1="1136" x2="1136" y1="41" y2="617"/><line style="stroke: #C0C0C0; stroke-width: 1.0;" x1="1152" x2="1152" y1="41" y2="617"/><line style="stroke: #C0C0C0; stroke-width: 1.0;" x1="1168" x2="1168" y1="41" y2="617"/><line style="stroke: #C0C0C0; stroke-width: 1.0;" x1="1184" x2="1184" y1="41" y2="617"/><line style="stroke: #C0C0C0; stroke-width: 1.0;" x1="1200" x2="1200" y1="41" y2="617"/><line style="stroke: #C0C0C0; stroke-width: 1.0;" x1="1216" x2="1216" y1="41" y2="617"/><line style="stroke: #C0C0C0; stroke-width: 1.0;" x1="1232" x2="1232" y1="41" y2="617"/><line style="stroke: #C0C0C0; stroke-width: 1.0;" x1="1248" x2="1248" y1="41" y2="617"/><line style="stroke: #C0C0C0; stroke-width: 1.0;" x1="1264" x2="1264" y1="41" y2="617"/><line style="stroke: #C0C0C0; stroke-width: 1.0;" x1="1280" x2="1280" y1="41" y2="617"/><line style="stroke: #C0C0C0; stroke-width: 1.0;" x1="1296" x2="1296" y1="41" y2="617"/><line style="stroke: #C0C0C0; stroke-width: 1.0;" x1="1312" x2="1312" y1="41" y2="617"/><line style="stroke: #C0C0C0; stroke-width: 1.0;" x1="1328" x2="1328" y1="41" y2="617"/><line style="stroke: #C0C0C0; stroke-width: 1.0;" x1="1344" x2="1344" y1="41" y2="617"/><line style="stroke: #C0C0C0; stroke-width: 1.0;" x1="1360" x2="1360" y1="0" y2="617"/><line style="stroke: #C0C0C0; stroke-width: 1.0;" x1="1376" x2="1376" y1="41" y2="617"/><line style="stroke: #C0C0C0; stroke-width: 1.0;" x1="1392" x2="1392" y1="41" y2="617"/><line style="stroke: #C0C0C0; stroke-width: 1.0;" x1="1408" x2="1408" y1="41" y2="617"/><line style="stroke: #C0C0C0; stroke-width: 1.0;" x1="1424" x2="1424" y1="41" y2="617"/><line style="stroke: #C0C0C0; stroke-width: 1.0;" x1="1440" x2="1440" y1="41" y2="617"/><line style="stroke: #C0C0C0; stroke-width: 1.0;" x1="1456" x2="1456" y1="41" y2="617"/><line style="stroke: #C0C0C0; stroke-width: 1.0;" x1="1472" x2="1472" y1="41" y2="617"/><line style="stroke: #C0C0C0; stroke-width: 1.0;" x1="1488" x2="1488" y1="41" y2="617"/><line style="stroke: #C0C0C0; stroke-width: 1.0;" x1="1504" x2="1504" y1="41" y2="617"/><line style="stroke: #C0C0C0; stroke-width: 1.0;" x1="1520" x2="1520" y1="41" y2="617"/><line style="stroke: #C0C0C0; stroke-width: 1.0;" x1="1536" x2="1536" y1="41" y2="617"/><line style="stroke: #C0C0C0; stroke-width: 1.0;" x1="1552" x2="1552" y1="41" y2="617"/><line style="stroke: #C0C0C0; stroke-width: 1.0;" x1="1568" x2="1568" y1="41" y2="617"/><line style="stroke: #C0C0C0; stroke-width: 1.0;" x1="1584" x2="1584" y1="41" y2="617"/><line style="stroke: #C0C0C0; stroke-width: 1.0;" x1="1600" x2="1600" y1="41" y2="617"/><line style="stroke: #C0C0C0; stroke-width: 1.0;" x1="1616" x2="1616" y1="41" y2="617"/><line style="stroke: #C0C0C0; stroke-width: 1.0;" x1="1632" x2="1632" y1="16" y2="617"/><line style="stroke: #C0C0C0; stroke-width: 1.0;" x1="0" x2="1632" y1="0" y2="0"/><line style="stroke: #C0C0C0; stroke-width: 1.0;" x1="0" x2="1632" y1="41" y2="41"/><line style="stroke: #000000; stroke-width: 1.0;" x1="0" x2="8" y1="49" y2="49"/><line style="stroke: #000000; stroke-width: 1.0;" x1="119" x2="1632" y1="49" y2="49"/><rect fill="#ADFF2F" height="12" rx="4" ry="4" style="stroke: #0000FF; stroke-width: 1.0;" width="76" x="2" y="59"/><rect fill="#ADFF2F" height="12" rx="4" ry="4" style="stroke: #0000FF; stroke-width: 1.0;" width="332" x="162" y="75"/><rect fill="#ADFF2F" height="12" rx="4" ry="4" style="stroke: #0000FF; stroke-width: 1.0;" width="204" x="498" y="91"/><rect fill="#ADFF2F" height="12" rx="4" ry="4" style="stroke: #0000FF; stroke-width: 1.0;" width="796" x="706" y="107"/><rect fill="#ADFF2F" height="12" rx="4" ry="4" style="stroke: #0000FF; stroke-width: 1.0;" width="124" x="1506" y="123"/><polygon fill="#000000" points="1624,139,1630,145,1624,151,1618,145" style="stroke: #000000; stroke-width: 1.0;"/><line style="stroke: #000000; stroke-width: 1.0;" x1="0" x2="8" y1="161" y2="161"/><line style="stroke: #000000; stroke-width: 1.0;" x1="49" x2="1632" y1="161" y2="161"/><polygon fill="#FF0000" points="632,171,638,177,632,183,626,177" style="stroke: #FF0000; stroke-width: 1.0;"/><polygon fill="#FF0000" points="1400,187,1406,193,1400,199,1394,193" style="stroke: #FF0000; stroke-width: 1.0;"/><line style="stroke: #000000; stroke-width: 1.0;" x1="0" x2="8" y1="209" y2="209"/><line style="stroke: #000000; stroke-width: 1.0;" x1="65" x2="1632" y1="209" y2="209"/><polygon fill="#000000" points="168,219,174,225,168,231,162,225" style="stroke: #000000; stroke-width: 1.0;"/><polygon fill="#000000" points="280,235,286,241,280,247,274,241" style="stroke: #000000; stroke-width: 1.0;"/><polygon fill="#000000" points="392,251,398,257,392,263,386,257" style="stroke: #000000; stroke-width: 1.0;"/><rect fill="#ADFF2F" height="12" rx="4" ry="4" style="stroke: #0000FF; stroke-width: 1.0;" width="28" x="706" y="267"/><line style="stroke: #000000; stroke-width: 1.0;" x1="0" x2="8" y1="289" y2="289"/><line style="stroke: #000000; stroke-width: 1.0;" x1="135" x2="1632" y1="289" y2="289"/><polygon fill="#000000" points="472,299,478,305,472,311,466,305" style="stroke: #000000; stroke-width: 1.0;"/><polygon fill="#000000" points="1032,315,1038,321,1032,327,1026,321" style="stroke: #000000; stroke-width: 1.0;"/><polygon fill="#000000" points="1256,331,1262,337,1256,343,1250,337" style="stroke: #000000; stroke-width: 1.0;"/><polygon fill="#000000" points="168,347,174,353,168,359,162,353" style="stroke: #000000; stroke-width: 1.0;"/><polygon fill="#000000" points="280,363,286,369,280,375,274,369" style="stroke: #000000; stroke-width: 1.0;"/><polygon fill="#000000" points="504,379,510,385,504,391,498,385" style="stroke: #000000; stroke-width: 1.0;"/><polygon fill="#000000" points="840,395,846,401,840,407,834,401" style="stroke: #000000; stroke-width: 1.0;"/><polygon fill="#000000" points="1064,411,1070,417,1064,423,1058,417" style="stroke: #000000; stroke-width: 1.0;"/><polygon fill="#000000" points="1288,427,1294,433,1288,439,1282,433" style="stroke: #000000; stroke-width: 1.0;"/><polygon fill="#000000" points="1512,443,1518,449,1512,455,1506,449" style="stroke: #000000; stroke-width: 1.0;"/><polygon fill="#000000" points="376,459,382,465,376,471,370,465" style="stroke: #000000; stroke-width: 1.0;"/><polygon fill="#000000" points="936,475,942,481,936,487,930,481" style="stroke: #000000; stroke-width: 1.0;"/><polygon fill="#000000" points="1384,491,1390,497,1384,503,1378,497" style="stroke: #000000; stroke-width: 1.0;"/><rect fill="#ADFF2F" height="12" rx="4" ry="4" style="stroke: #0000FF; stroke-width: 1.0;" width="108" x="370" y="507"/><rect fill="#ADFF2F" height="12" rx="4" ry="4" style="stroke: #0000FF; stroke-width: 1.0;" width="108" x="930" y="523"/><rect fill="#ADFF2F" height="12" rx="4" ry="4" style="stroke: #0000FF; stroke-width: 1.0;" width="108" x="1378" y="539"/><polygon fill="#000000" points="248,555,254,561,248,567,242,561" style="stroke: #000000; stroke-width: 1.0;"/><polygon fill="#000000" points="808,571,814,577,808,583,802,577" style="stroke: #000000; stroke-width: 1.0;"/><polygon fill="#000000" points="1144,587,1150,593,1144,599,1138,593" style="stroke: #000000; stroke-width: 1.0;"/><polygon fill="#000000" points="1576,603,1582,609,1576,615,1570,609" style="stroke: #000000; stroke-width: 1.0;"/><text fill="#000000" font-family="Serif" font-size="11" lengthAdjust="spacingAndGlyphs" textLength="107" x="10" y="52.5264">FASER I PROJEKTET</text><text fill="#000000" font-family="Serif" font-size="11" lengthAdjust="spacingAndGlyphs" textLength="81" x="16" y="68.5547">Projektdefinering</text><text fill="#000000" font-family="Serif" font-size="11" lengthAdjust="spacingAndGlyphs" textLength="132" x="176" y="84.5547">Risk assesment &amp; mitigation</text><text fill="#000000" font-family="Serif" font-size="11" lengthAdjust="spacingAndGlyphs" textLength="91" x="512" y="100.5547">Initial development</text><text fill="#000000" font-family="Serif" font-size="11" lengthAdjust="spacingAndGlyphs" textLength="63" x="720" y="116.5547">Development</text><text fill="#000000" font-family="Serif" font-size="11" lengthAdjust="spacingAndGlyphs" textLength="34" x="1520" y="132.5547">Closure</text><text fill="#000000" font-family="Serif" font-size="11" lengthAdjust="spacingAndGlyphs" textLength="40" x="1632" y="148.5547">Deadline</text><text fill="#000000" font-family="Serif" font-size="11" lengthAdjust="spacingAndGlyphs" textLength="37" x="10" y="164.5264">Reviews</text><text fill="#000000" font-family="Serif" font-size="11" lengthAdjust="spacingAndGlyphs" textLength="79" x="640" y="180.5547">Review #1 udført</text><text fill="#000000" font-family="Serif" font-size="11" lengthAdjust="spacingAndGlyphs" textLength="79" x="1408" y="196.5547">Review #2 udført</text><text fill="#000000" font-family="Serif" font-size="11" lengthAdjust="spacingAndGlyphs" textLength="53" x="10" y="212.5264">Workshops</text><text fill="#000000" font-family="Serif" font-size="11" lengthAdjust="spacingAndGlyphs" textLength="62" x="176" y="228.5547">Git workshop</text><text fill="#000000" font-family="Serif" font-size="11" lengthAdjust="spacingAndGlyphs" textLength="88" x="288" y="244.5547">Redmine workshop</text><text fill="#000000" font-family="Serif" font-size="11" lengthAdjust="spacingAndGlyphs" textLength="99" x="400" y="260.5547">Websocket workshop</text><text fill="#000000" font-family="Serif" font-size="11" lengthAdjust="spacingAndGlyphs" textLength="115" x="720" y="276.5547">Systematic Git workshop</text><text fill="#000000" font-family="Serif" font-size="11" lengthAdjust="spacingAndGlyphs" textLength="123" x="10" y="292.5264">Belastning fra andre kurser</text><text fill="#000000" font-family="Serif" font-size="11" lengthAdjust="spacingAndGlyphs" textLength="29" x="480" y="308.5547">GFV 1</text><text fill="#000000" font-family="Serif" font-size="11" lengthAdjust="spacingAndGlyphs" textLength="29" x="1040" y="324.5547">GFV 2</text><text fill="#000000" font-family="Serif" font-size="11" lengthAdjust="spacingAndGlyphs" textLength="29" x="1264" y="340.5547">GFV 3</text><text fill="#000000" font-family="Serif" font-size="11" lengthAdjust="spacingAndGlyphs" textLength="32" x="176" y="356.5547">HAL 2</text><text fill="#000000" font-family="Serif" font-size="11" lengthAdjust="spacingAndGlyphs" textLength="32" x="288" y="372.5547">HAL 3</text><text fill="#000000" font-family="Serif" font-size="11" lengthAdjust="spacingAndGlyphs" textLength="32" x="512" y="388.5547">HAL 4</text><text fill="#000000" font-family="Serif" font-size="11" lengthAdjust="spacingAndGlyphs" textLength="32" x="848" y="404.5547">HAL 5</text><text fill="#000000" font-family="Serif" font-size="11" lengthAdjust="spacingAndGlyphs" textLength="32" x="1072" y="420.5547">HAL 6</text><text fill="#000000" font-family="Serif" font-size="11" lengthAdjust="spacingAndGlyphs" textLength="32" x="1296" y="436.5547">HAL 7</text><text fill="#000000" font-family="Serif" font-size="11" lengthAdjust="spacingAndGlyphs" textLength="44" x="1520" y="452.5547">HAL 8+9</text><text fill="#000000" font-family="Serif" font-size="11" lengthAdjust="spacingAndGlyphs" textLength="69" x="384" y="468.5547">EFYS Øvelse 1</text><text fill="#000000" font-family="Serif" font-size="11" lengthAdjust="spacingAndGlyphs" textLength="69" x="944" y="484.5547">EFYS Øvelse 2</text><text fill="#000000" font-family="Serif" font-size="11" lengthAdjust="spacingAndGlyphs" textLength="69" x="1392" y="500.5547">EFYS Øvelse 3</text><text fill="#000000" font-family="Serif" font-size="11" lengthAdjust="spacingAndGlyphs" textLength="78" x="384" y="516.5547">EFYS delprøve 1</text><text fill="#000000" font-family="Serif" font-size="11" lengthAdjust="spacingAndGlyphs" textLength="78" x="944" y="532.5547">EFYS delprøve 2</text><text fill="#000000" font-family="Serif" font-size="11" lengthAdjust="spacingAndGlyphs" textLength="78" x="1392" y="548.5547">EFYS delprøve 3</text><text fill="#000000" font-family="Serif" font-size="11" lengthAdjust="spacingAndGlyphs" textLength="81" x="256" y="564.5547">DSB Aflevering 1</text><text fill="#000000" font-family="Serif" font-size="11" lengthAdjust="spacingAndGlyphs" textLength="81" x="816" y="580.5547">DSB Aflevering 2</text><text fill="#000000" font-family="Serif" font-size="11" lengthAdjust="spacingAndGlyphs" textLength="81" x="1152" y="596.5547">DSB Aflevering 3</text><text fill="#000000" font-family="Serif" font-size="11" lengthAdjust="spacingAndGlyphs" textLength="81" x="1584" y="612.5547">DSB Aflevering 4</text><!--MD5=[934720bbb9316a6bc8d2f133d732a5f6]
@startgantt
project starts the 2020/09/07
saturday are closed
sunday are closed
- - FASER I PROJEKTET - -

[Projektdefinering] lasts 5 days

[Risk assesment & mitigation] starts the 2020/09/17 and ends 2020/10/07

[Initial development] starts the 2020/10/08 and ends 2020/10/20

[Development] starts the 2020/10/21 and ends 2020/12/09

[Closure] starts the 2020/12/10 and ends 2020/12/17

[Deadline] happens 2020/12/17

- - Reviews - -
[Review #1 udført] is colored in Red and happens 2020/10/16 
[Review #2 udført] is colored in Red and happens 2020/12/03 

- - Workshops - -
[Git workshop] happens 2020/09/17
[Redmine workshop] happens 2020/09/24
[Websocket workshop] happens 2020/10/01
[Systematic Git workshop] starts the 2020/10/21 and lasts 2 days

- - Belastning fra andre kurser - -
' [MSE øvelse 1] happens 2020/09/14
' [MSE øvelse 2] happens 2020/09/28
' [MSE øvelse 3] happens 2020/10/05
[GFV 1] happens 2020/10/06
[GFV 2] happens 2020/11/10
[GFV 3] happens 2020/11/24

[HAL 2] happens 2020/09/17
[HAL 3] happens 2020/09/24
[HAL 4] happens 2020/10/08
[HAL 5] happens 2020/10/29
[HAL 6] happens 2020/11/12
[HAL 7] happens 2020/11/26
[HAL 8+9] happens 2020/12/10

[EFYS Øvelse 1] happens 2020/09/30
[EFYS Øvelse 2] happens 2020/11/04
[EFYS Øvelse 3] happens 2020/12/02

[EFYS delprøve 1] starts 2020/09/30 and ends 2020/10/06
[EFYS delprøve 2] starts 2020/11/04 and ends 2020/11/10
[EFYS delprøve 3] starts 2020/12/02 and ends 2020/12/08

[DSB Aflevering 1] happens 2020/09/22
[DSB Aflevering 2] happens 2020/10/27
[DSB Aflevering 3] happens 2020/11/17
[DSB Aflevering 4] happens 2020/12/12


2020/10/12 to 2020/10/16 are colored in LightBlue
@endgantt

@startgantt
project starts the 2020/09/07
saturday are closed
sunday are closed
- - FASER I PROJEKTET - -

[Projektdefinering] lasts 5 days

[Risk assesment & mitigation] starts the 2020/09/17 and ends 2020/10/07

[Initial development] starts the 2020/10/08 and ends 2020/10/20

[Development] starts the 2020/10/21 and ends 2020/12/09

[Closure] starts the 2020/12/10 and ends 2020/12/17

[Deadline] happens 2020/12/17

- - Reviews - -
[Review #1 udført] is colored in Red and happens 2020/10/16 
[Review #2 udført] is colored in Red and happens 2020/12/03 

- - Workshops - -
[Git workshop] happens 2020/09/17
[Redmine workshop] happens 2020/09/24
[Websocket workshop] happens 2020/10/01
[Systematic Git workshop] starts the 2020/10/21 and lasts 2 days

- - Belastning fra andre kurser - -
[GFV 1] happens 2020/10/06
[GFV 2] happens 2020/11/10
[GFV 3] happens 2020/11/24

[HAL 2] happens 2020/09/17
[HAL 3] happens 2020/09/24
[HAL 4] happens 2020/10/08
[HAL 5] happens 2020/10/29
[HAL 6] happens 2020/11/12
[HAL 7] happens 2020/11/26
[HAL 8+9] happens 2020/12/10

[EFYS Øvelse 1] happens 2020/09/30
[EFYS Øvelse 2] happens 2020/11/04
[EFYS Øvelse 3] happens 2020/12/02

[EFYS delprøve 1] starts 2020/09/30 and ends 2020/10/06
[EFYS delprøve 2] starts 2020/11/04 and ends 2020/11/10
[EFYS delprøve 3] starts 2020/12/02 and ends 2020/12/08

[DSB Aflevering 1] happens 2020/09/22
[DSB Aflevering 2] happens 2020/10/27
[DSB Aflevering 3] happens 2020/11/17
[DSB Aflevering 4] happens 2020/12/12


2020/10/12 to 2020/10/16 are colored in LightBlue
@endgantt

PlantUML version 1.2020.10(Sun May 17 11:35:57 CEST 2020)
(GPL source distribution)
Java Runtime: Java(TM) SE Runtime Environment
JVM: Java HotSpot(TM) 64-Bit Server VM
Java Version: 1.8.0_251-b08
Operating System: Windows 10
Default Encoding: Cp1252
Language: en
Country: US
--></g></svg>